<?xml version="1.0" encoding="UTF-8" standalone="no"?>
<!-- Created with Inkscape (http://www.inkscape.org/) -->

<svg
   id="svg2"
   viewBox="0 0 1200 800"
   version="1.1"
   inkscape:version="1.2.2 (b0a8486541, 2022-12-01)"
   sodipodi:docname="Hands_.svg"
   width="1200"
   height="800"
   inkscape:export-filename="hands2.png"
   inkscape:export-xdpi="96"
   inkscape:export-ydpi="96"
   xmlns:inkscape="http://www.inkscape.org/namespaces/inkscape"
   xmlns:sodipodi="http://sodipodi.sourceforge.net/DTD/sodipodi-0.dtd"
   xmlns="http://www.w3.org/2000/svg"
   xmlns:svg="http://www.w3.org/2000/svg"
   xmlns:rdf="http://www.w3.org/1999/02/22-rdf-syntax-ns#"
   xmlns:cc="http://creativecommons.org/ns#"
   xmlns:dc="http://purl.org/dc/elements/1.1/">
  <sodipodi:namedview
     id="namedview148"
     pagecolor="#ffffff"
     bordercolor="#666666"
     borderopacity="1.0"
     inkscape:showpageshadow="2"
     inkscape:pageopacity="0.0"
     inkscape:pagecheckerboard="0"
     inkscape:deskcolor="#d1d1d1"
     showgrid="false"
     inkscape:zoom="1.0099327"
     inkscape:cx="587.16784"
     inkscape:cy="416.36438"
     inkscape:window-width="1866"
     inkscape:window-height="1016"
     inkscape:window-x="0"
     inkscape:window-y="0"
     inkscape:window-maximized="1"
     inkscape:current-layer="svg2" />
  <defs
     id="defs4">
    <filter
       id="filter4796"
       color-interpolation-filters="sRGB"
       x="-0.11535524"
       y="-0.091740668"
       width="1.2307105"
       height="1.1834813">
      <feGaussianBlur
         id="feGaussianBlur4798"
         in="SourceAlpha"
         stdDeviation="6"
         result="result0" />
      <feSpecularLighting
         id="feSpecularLighting4800"
         lighting-color="#ffffff"
         specularConstant="1"
         surfaceScale="10"
         result="result1"
         specularExponent="25"
         in="result0">
        <feDistantLight
           id="feDistantLight4802"
           elevation="45"
           azimuth="235" />
      </feSpecularLighting>
      <feComposite
         id="feComposite4804"
         in="SourceGraphic"
         in2="result1"
         k3="1"
         k2="1"
         k1="0"
         result="result4"
         k4="0"
         operator="arithmetic" />
      <feComposite
         id="feComposite4806"
         operator="in"
         result="fbSourceGraphic"
         in2="SourceAlpha"
         in="result4" />
      <feColorMatrix
         id="feColorMatrix4808"
         values="0 0 0 -1 0 0 0 0 -1 0 0 0 0 -1 0 0 0 0 1 0"
         result="fbSourceGraphicAlpha"
         in="fbSourceGraphic" />
      <feGaussianBlur
         id="feGaussianBlur4810"
         in="fbSourceGraphicAlpha"
         stdDeviation="6"
         result="result0" />
      <feSpecularLighting
         id="feSpecularLighting4812"
         lighting-color="#ffffff"
         specularConstant="1"
         surfaceScale="10"
         result="result1"
         specularExponent="25"
         in="result0">
        <feDistantLight
           id="feDistantLight4814"
           elevation="45"
           azimuth="235" />
      </feSpecularLighting>
      <feComposite
         id="feComposite4816"
         in="fbSourceGraphic"
         in2="result1"
         k3="1"
         k2="1"
         k1="0"
         result="result4"
         k4="0"
         operator="arithmetic" />
      <feComposite
         id="feComposite4818"
         operator="in"
         result="result2"
         in2="fbSourceGraphicAlpha"
         in="result4" />
    </filter>
    <clipPath
       id="clipPath4826">
      <rect
         id="rect4828"
         style="fill:#b97158"
         ry="25.018999"
         height="328.95999"
         width="317.31"
         y="-469.64999"
         x="-892.77002" />
    </clipPath>
  </defs>
  <g
     id="g182"
     transform="matrix(1.2457494,0,0,1.2457494,189.401,-211.75168)">
    <path
       id="path4482"
       style="fill:#000000;stroke:#000000;stroke-width:2.1222"
       d="m 562.42,378.185 c -5.1536,0.73863 -9.3527,4.5901 -11.664,9.1012 -3.6973,6.5399 -6.3342,13.595 -9.4987,20.393 -6.8025,15.368 -13.445,30.811 -19.717,46.403 -4.9269,12.534 -9.8821,25.06 -14.585,37.68 -2.3475,6.476 -4.1404,13.134 -6.3992,19.641 -1.0662,3.2304 -1.7533,7.0272 -5.0007,8.8289 -2.202,1.5689 -5.457,1.6192 -7.4538,-0.33459 -2.7027,-2.1686 -3.6078,-5.8267 -3.2251,-9.1524 0.47332,-7.6536 2.1748,-15.163 3.4794,-22.705 4.7917,-26.617 9.7474,-53.205 14.708,-79.791 0.67758,-5.5781 0.93246,-11.192 1.2158,-16.801 -0.2674,-3.2013 -1.1783,-6.5091 -3.35,-8.968 -2.7587,-2.736 -6.6405,-4.4161 -10.559,-4.1422 -3.1098,0.20338 -6.2434,1.5327 -8.4485,3.7452 -2.4457,2.1043 -3.5055,5.249 -4.9437,8.0386 -6.0776,15.47 -11.419,31.217 -16.374,47.079 -2.4308,7.2183 -4.4045,14.574 -6.1951,21.975 -5.0194,20.878 -9.8094,41.813 -14.975,62.655 -1.8109,6.0211 -3.4841,12.09 -5.7838,17.95 -1.9762,5.589 -4.0931,11.158 -6.9634,16.359 -2.1138,3.2751 -3.7907,6.8159 -5.9687,10.058 -2.3183,3.1501 -3.8077,7.0239 -6.707,9.6725 -2.7078,2.4992 -7.4856,2.2319 -9.0989,-1.3828 -2.1606,-3.8354 -1.6253,-8.3852 -2.1001,-12.6 -0.67216,-9.4557 -0.95756,-18.94 -2.0134,-28.366 -0.27836,-3.8309 -0.80003,-7.6206 -2.0368,-11.272 -1.2565,-4.5426 -2.7432,-9.0162 -4.5772,-13.359 -1.6232,-4.4492 -3.4248,-8.8556 -5.739,-12.994 -2.6883,-4.6682 -6.3207,-8.708 -9.9806,-12.627 -2.3424,-2.4108 -5.1287,-4.8541 -8.5727,-5.3249 -2.9378,-0.42829 -5.9852,0.31692 -8.5294,1.8181 -2.8779,1.5329 -4.9565,4.3942 -5.5317,7.5996 -0.8759,3.9011 -0.0612,7.9121 0.0212,11.857 1.3704,23.54 3.4393,47.037 4.5509,70.592 0.47798,9.8053 -0.17367,19.612 -0.24264,29.418 0.0375,5.0642 0.17119,10.217 1.8643,15.049 2.4668,7.7701 5.545,15.337 8.7985,22.807 5.6833,12.576 11.133,25.26 17.187,37.666 3.3439,6.8903 6.5209,13.859 9.8266,20.768 1.622,3.936 1.5803,8.2797 1.2232,12.453 -1.0428,14.153 -2.4376,28.277 -3.7592,42.406 0.0874,3.1982 -1.2056,6.3089 -0.55891,9.4704 1.8874,5.0365 3.7748,6.2984 6.5992,8.5242 4.8011,2.4094 6.5678,3.2076 9.8248,4.0818 6.2244,1.8275 11.385,2.7295 18.014,3.6448 63.67,5.0674 66.233,-1.4383 69.838,-6.2734 2.9277,-3.8579 3.4929,-8.6242 4.0353,-11.364 0.87533,-3.488 1.2759,-7.0571 1.4148,-10.646 0.52188,-3.5168 1.995,-6.8704 4.3614,-9.5473 5.4295,-6.4604 11.241,-12.596 16.733,-19.006 7.9903,-9.0066 15.917,-18.125 22.629,-28.145 3.7429,-5.5283 6.5451,-11.619 9.9142,-17.372 4.7741,-9.5053 9.6678,-18.949 14.792,-28.271 l 22.899,-42.69 c 6.3082,-8.7796 12.66,-17.535 19.532,-25.886 10.66,-13.242 21.405,-26.414 32.196,-39.548 2.8798,-3.8711 5.1385,-8.1463 7.6266,-12.269 1.5072,-4.2076 3.76,-8.5549 2.7633,-13.153 -2.1507,-4.3571 -6.532,-7.775 -11.495,-7.9582 -4.1463,-0.68225 -7.4164,2.5657 -10.278,5.0629 -4.8616,4.154 -8.9126,9.1266 -13.24,13.81 -14.644,16.352 -29.428,32.58 -44.127,48.883 -2.5942,2.09 -5.384,4.4468 -8.8424,4.7528 -3.2091,0.54905 -6.1279,-1.8708 -6.9634,-4.8633 -1.7195,-4.0894 0.29782,-8.4098 1.5308,-12.33 2.7497,-8.1315 5.8495,-16.139 9.0856,-24.088 3.4422,-9.1599 6.9138,-18.309 10.014,-27.592 4.4198,-12.791 8.4805,-25.703 12.703,-38.559 3.4165,-10.651 6.8929,-21.288 10.055,-32.018 1.0123,-4.1379 2.8256,-8.2787 2.2015,-12.621 -0.14749,-3.2477 -2.004,-6.1356 -4.445,-8.1734 -2.1189,-1.7248 -4.8724,-2.448 -7.5443,-2.6778 -3.1122,-0.16907 -6.2714,0.7926 -8.6214,2.8738 -2.6652,2.5827 -4.0442,6.0377 -5.3966,9.4137 -11.8,27.73 -22.919,55.743 -34.284,83.653 -2.2942,6.0698 -4.7093,12.098 -6.9306,18.193 -0.86316,2.8632 -1.5161,6.2849 -4.248,7.9808 -3.2415,2.1999 -6.5776,-2.7115 -5.0694,-5.6151 1.3838,-4.3506 3.3141,-8.4916 4.7641,-12.817 6.6917,-17.795 13.333,-35.609 19.782,-53.494 7.6811,-21.033 15.332,-42.076 22.982,-63.121 0.82705,-3.8403 2.2639,-7.8672 1.03,-11.783 -1.1205,-3.3559 -3.3367,-6.5282 -6.3355,-8.4442 -2.9665,-1.7804 -6.4584,-2.1288 -9.8372,-2.3211 -0.66318,0.0368 -1.3264,0.0736 -1.9896,0.11036 z" />
    <path
       id="path4864"
       style="fill:#000000;stroke:#000000;stroke-width:2.1222"
       d="m 96.8,379.455 c 5.1536,0.73863 9.3527,4.5901 11.664,9.1012 3.6973,6.5399 6.3342,13.595 9.4987,20.393 6.8025,15.368 13.445,30.811 19.717,46.403 4.9269,12.534 9.8821,25.06 14.585,37.68 2.3475,6.476 4.1404,13.134 6.3992,19.641 1.0662,3.2304 1.7533,7.0272 5.0007,8.8289 2.202,1.5689 5.457,1.6192 7.4538,-0.33459 2.7027,-2.1686 3.6078,-5.8267 3.2251,-9.1524 -0.47332,-7.6536 -2.1748,-15.163 -3.4794,-22.705 -4.7917,-26.617 -9.7474,-53.205 -14.708,-79.791 -0.67758,-5.5781 -0.93246,-11.192 -1.2158,-16.801 0.2674,-3.2013 1.1783,-6.5091 3.35,-8.968 2.7587,-2.736 6.6405,-4.4161 10.559,-4.1422 3.1098,0.20338 6.2434,1.5327 8.4485,3.7452 2.4457,2.1043 3.5055,5.249 4.9437,8.0386 6.0776,15.47 11.419,31.217 16.374,47.079 2.4308,7.2183 4.4045,14.574 6.1951,21.975 5.0194,20.878 9.8094,41.813 14.975,62.655 1.8109,6.0211 3.4841,12.09 5.7838,17.95 1.9762,5.589 4.0931,11.158 6.9634,16.359 2.1138,3.2751 3.7907,6.8159 5.9687,10.058 2.3183,3.1501 3.8077,7.0239 6.707,9.6725 2.7078,2.4992 7.4856,2.2319 9.0989,-1.3828 2.1606,-3.8354 1.6253,-8.3852 2.1001,-12.6 0.67216,-9.4557 0.95756,-18.94 2.0134,-28.366 0.27836,-3.8309 0.80003,-7.6206 2.0368,-11.272 1.2565,-4.5426 2.7432,-9.0162 4.5772,-13.359 1.6232,-4.4492 3.4248,-8.8556 5.739,-12.994 2.6883,-4.6682 6.3207,-8.708 9.9806,-12.627 2.3424,-2.4108 5.1287,-4.8541 8.5727,-5.3249 2.9378,-0.42829 5.9852,0.31692 8.5294,1.8181 2.8779,1.5329 4.9565,4.3942 5.5317,7.5996 0.8759,3.9011 0.0612,7.9121 -0.0212,11.857 -1.3704,23.54 -3.4393,47.037 -4.5509,70.592 -0.47798,9.8053 0.17367,19.612 0.24264,29.418 -0.0375,5.0642 -0.17119,10.217 -1.8643,15.049 -2.4668,7.7701 -5.545,15.337 -8.7985,22.807 -5.6833,12.576 -11.133,25.26 -17.187,37.666 -3.3439,6.8903 -6.5209,13.859 -9.8266,20.768 -1.622,3.936 -1.5803,8.2797 -1.2232,12.453 1.0428,14.153 2.4376,28.277 3.7592,42.406 -0.0874,3.1982 1.2056,6.3089 0.55891,9.4704 -1.8874,5.0365 -3.7748,6.2984 -6.5992,8.5242 -4.8011,2.4094 -6.5678,3.2076 -9.8248,4.0818 -6.2244,1.8275 -11.385,2.7295 -18.014,3.6448 -63.67,5.0674 -66.233,-1.4383 -69.838,-6.2734 -2.9277,-3.8579 -3.4929,-8.6242 -4.0353,-11.364 -0.87533,-3.488 -1.2759,-7.0571 -1.4148,-10.646 -0.52188,-3.5168 -1.995,-6.8704 -4.3614,-9.5473 -5.4295,-6.4604 -11.241,-12.596 -16.733,-19.006 -7.9903,-9.0066 -15.917,-18.125 -22.629,-28.145 -3.7429,-5.5283 -6.5451,-11.619 -9.9142,-17.372 -4.7741,-9.5053 -9.6678,-18.949 -14.792,-28.271 -7.65,-14.25 -15.29,-28.47 -22.919,-42.7 -6.3082,-8.7796 -12.66,-17.535 -19.532,-25.886 -10.66,-13.242 -21.405,-26.414 -32.196,-39.548 -2.8798,-3.8711 -5.1385,-8.1463 -7.6266,-12.269 -1.5072,-4.2076 -3.76,-8.5549 -2.7633,-13.153 2.1507,-4.3571 6.532,-7.775 11.495,-7.9582 4.1463,-0.68225 7.4164,2.5657 10.278,5.0629 4.8616,4.154 8.9126,9.1266 13.24,13.81 14.644,16.352 29.428,32.58 44.127,48.883 2.5942,2.09 5.384,4.4468 8.8424,4.7528 3.2091,0.54905 6.1279,-1.8708 6.9634,-4.8633 1.7195,-4.0894 -0.29782,-8.4098 -1.5308,-12.33 -2.7497,-8.1315 -5.8495,-16.139 -9.0856,-24.088 -3.4422,-9.1599 -6.9138,-18.309 -10.014,-27.592 -4.4198,-12.791 -8.4805,-25.703 -12.703,-38.559 -3.4165,-10.651 -6.8929,-21.288 -10.055,-32.018 -1.0123,-4.1379 -2.8256,-8.2787 -2.2015,-12.621 0.14749,-3.2477 2.004,-6.1356 4.445,-8.1734 2.1189,-1.7248 4.8724,-2.448 7.5443,-2.6778 3.1122,-0.16907 6.2715,0.7926 8.6214,2.8738 2.6652,2.5827 4.0442,6.0377 5.3966,9.4137 11.8,27.73 22.919,55.743 34.284,83.653 2.2942,6.0698 4.7093,12.098 6.9306,18.193 0.86316,2.8632 1.5161,6.2849 4.248,7.9808 3.2415,2.1999 6.5776,-2.7115 5.0694,-5.6151 -1.3838,-4.3506 -3.3141,-8.4916 -4.7641,-12.817 -6.6917,-17.795 -13.333,-35.609 -19.782,-53.494 -7.6811,-21.033 -15.332,-42.076 -22.982,-63.121 -0.82705,-3.8403 -2.2639,-7.8672 -1.03,-11.783 1.1205,-3.3559 3.3367,-6.5282 6.3355,-8.4442 2.9665,-1.7804 6.4584,-2.1288 9.8372,-2.3211 0.66318,0.0368 1.3264,0.0736 1.9896,0.11036 z" />
  </g>
  <metadata
     id="metadata145">
    <rdf:RDF>
      <cc:Work>
        <dc:format>image/svg+xml</dc:format>
        <dc:type
           rdf:resource="http://purl.org/dc/dcmitype/StillImage" />
        <cc:license
           rdf:resource="http://creativecommons.org/publicdomain/zero/1.0/" />
        <dc:publisher>
          <cc:Agent
             rdf:about="http://openclipart.org/">
            <dc:title>Openclipart</dc:title>
          </cc:Agent>
        </dc:publisher>
        <dc:date>2010-08-02T22:20:52</dc:date>
        <dc:description>Hands</dc:description>
        <dc:source>https://openclipart.org/detail/76405/hands-by-inky2010</dc:source>
        <dc:creator>
          <cc:Agent>
            <dc:title>inky2010</dc:title>
          </cc:Agent>
        </dc:creator>
        <dc:subject>
          <rdf:Bag>
            <rdf:li>Hands</rdf:li>
            <rdf:li>black</rdf:li>
            <rdf:li>gloss</rdf:li>
            <rdf:li>glossy</rdf:li>
            <rdf:li>icon</rdf:li>
            <rdf:li>inky2010</rdf:li>
          </rdf:Bag>
        </dc:subject>
      </cc:Work>
      <cc:License
         rdf:about="http://creativecommons.org/publicdomain/zero/1.0/">
        <cc:permits
           rdf:resource="http://creativecommons.org/ns#Reproduction" />
        <cc:permits
           rdf:resource="http://creativecommons.org/ns#Distribution" />
        <cc:permits
           rdf:resource="http://creativecommons.org/ns#DerivativeWorks" />
      </cc:License>
    </rdf:RDF>
  </metadata>
</svg>
